<?xml version="1.0" encoding="UTF-8"?>
<svg version="1.1" xmlns="http://www.w3.org/2000/svg" width="2000" height="2000">
<path d="M0 0 C660 0 1320 0 2000 0 C2000 660 2000 1320 2000 2000 C1340 2000 680 2000 0 2000 C0 1340 0 680 0 0 Z " fill="#4F39F6" transform="translate(0,0)"/>
<path d="M0 0 C2.49868111 0.01612841 4.99575105 0.00001751 7.49438477 -0.01904297 C20.89863094 -0.03733463 33.92396628 1.42341217 46.62133789 6.01611328 C47.3192041 6.26627197 48.01707031 6.51643066 48.73608398 6.77416992 C60.59290669 11.29794969 70.35582916 19.28710164 77.93383789 29.39111328 C78.26383789 22.13111328 78.59383789 14.87111328 78.93383789 7.39111328 C103.68383789 7.39111328 128.43383789 7.39111328 153.93383789 7.39111328 C153.93383789 114.64111328 153.93383789 221.89111328 153.93383789 332.39111328 C129.18383789 332.39111328 104.43383789 332.39111328 78.93383789 332.39111328 C78.60383789 324.80111328 78.27383789 317.21111328 77.93383789 309.39111328 C75.62383789 312.36111328 73.31383789 315.33111328 70.93383789 318.39111328 C56.74742034 332.60082544 34.94468333 339.07362826 15.20629883 339.3515625 C13.46955642 339.38178943 11.73319024 339.43443562 9.99731445 339.49707031 C-15.55310724 340.39907191 -42.00493772 338.20411747 -62.58569336 321.32470703 C-79.0503522 305.64541522 -86.56434143 281.99680742 -87.16684914 259.65800285 C-87.23031231 254.9669003 -87.23597872 250.27568954 -87.24316406 245.58422852 C-87.24943826 243.77949903 -87.25608589 241.9747708 -87.26307678 240.17004395 C-87.28402064 234.26327395 -87.2944759 228.356504 -87.30444336 222.44970703 C-87.3084957 220.40437368 -87.31261276 218.35904045 -87.31679344 216.31370735 C-87.33583052 206.69216488 -87.35005993 197.07062996 -87.35840541 187.4490723 C-87.36814705 176.40466275 -87.39439218 165.36045525 -87.4349063 154.31611675 C-87.46526185 145.74153187 -87.47989286 137.16700424 -87.48318642 128.59236676 C-87.48551644 123.48988125 -87.4942043 118.38761188 -87.5196476 113.28518486 C-87.84872467 43.68024706 -87.84872467 43.68024706 -66.06616211 21.39111328 C-47.11413231 4.40678056 -24.72809815 -0.18911576 0 0 Z " fill="#FEFEFE" transform="translate(1143.066162109375,889.60888671875)"/>
<path d="M0 0 C2.66391554 -0.00434098 5.32612563 -0.04066716 7.98974609 -0.07861328 C30.70166203 -0.22689322 54.49524827 4.32724917 71.32714844 20.68847656 C77.38427734 26.74560547 77.38427734 26.74560547 78.69677734 29.37060547 C79.02677734 22.11060547 79.35677734 14.85060547 79.69677734 7.37060547 C104.44677734 7.37060547 129.19677734 7.37060547 154.69677734 7.37060547 C154.69677734 114.62060547 154.69677734 221.87060547 154.69677734 332.37060547 C129.94677734 332.37060547 105.19677734 332.37060547 79.69677734 332.37060547 C79.36677734 325.11060547 79.03677734 317.85060547 78.69677734 310.37060547 C77.10865234 312.20623047 75.52052734 314.04185547 73.88427734 315.93310547 C59.55589165 331.82384945 39.00541458 338.12152409 18.07958984 339.24169922 C16.61881456 339.28986841 15.15783663 339.33199903 13.69677734 339.37060547 C12.68325195 339.39783691 11.66972656 339.42506836 10.62548828 339.453125 C-16.26494296 340.06062409 -43.45766148 338.30677013 -64.15087891 318.69873047 C-70.82243851 311.48230665 -75.50419444 303.74623713 -79.17822266 294.68310547 C-79.45230957 294.02648926 -79.72639648 293.36987305 -80.00878906 292.69335938 C-85.42516299 278.34047279 -85.74467869 262.79511277 -85.67553711 247.66479492 C-85.67797265 245.76531781 -85.68169931 243.86584198 -85.68659973 241.96636963 C-85.69590612 236.86528119 -85.6866717 231.76438808 -85.6732676 226.66331506 C-85.66184363 221.29321833 -85.66606886 215.9231297 -85.66801453 210.55302429 C-85.66889384 201.54321145 -85.65789139 192.53347436 -85.6394043 183.52368164 C-85.61822301 173.14212492 -85.61473314 162.76067888 -85.62096626 152.37910491 C-85.62668133 142.34217593 -85.6209903 132.30528547 -85.60979271 122.26836205 C-85.60517701 118.01876289 -85.6042596 113.76918753 -85.60637856 109.51958656 C-85.60827677 104.50841938 -85.60004102 99.49736319 -85.58431816 94.48622131 C-85.58011437 92.65903368 -85.57919805 90.8318347 -85.58200836 89.00464439 C-85.61531563 63.45393025 -81.90236252 39.02926985 -63.12744141 20.03076172 C-53.22058065 10.69940325 -41.53382194 5.26062274 -28.30322266 2.37060547 C-27.61357422 2.20141602 -26.92392578 2.03222656 -26.21337891 1.85791016 C-17.53131175 -0.03494302 -8.8435311 -0.00160529 0 0 Z " fill="#FEFEFE" transform="translate(499.30322265625,889.62939453125)"/>
<path d="M0 0 C0.89536972 -0.00335861 1.79073944 -0.00671722 2.71324158 -0.01017761 C5.65967211 -0.01963899 8.60604547 -0.02162864 11.55249023 -0.02270508 C13.61645022 -0.02592218 15.68040999 -0.02928659 17.74436951 -0.03279114 C22.06916837 -0.03877124 26.39394729 -0.04063231 30.71875 -0.04003906 C36.22695203 -0.03993778 41.73502418 -0.05356025 47.24319553 -0.07081127 C51.50805738 -0.08200157 55.77288858 -0.08395608 60.0377636 -0.08342934 C62.06648135 -0.08460003 64.09520014 -0.08896987 66.12390327 -0.0967617 C90.44988206 -0.18141088 115.27634988 2.24091215 133.7409668 19.89672852 C155.84318721 42.05139488 155.79858398 70.25927495 155.79858398 100.14526367 C128.73858398 100.14526367 101.67858398 100.14526367 73.79858398 100.14526367 C73.46858398 92.22526367 73.13858398 84.30526367 72.79858398 76.14526367 C69.13440447 70.25135905 69.13440447 70.25135905 63.79858398 67.14526367 C61.0003199 66.68330446 61.0003199 66.68330446 58.00195312 66.7253418 C56.86049332 66.70942993 55.71903351 66.69351807 54.54298401 66.67712402 C53.31893356 66.67692261 52.09488312 66.67672119 50.83374023 66.67651367 C48.93464149 66.66509338 48.93464149 66.66509338 46.99717712 66.65344238 C44.32136603 66.64264314 41.64643913 66.63841679 38.97070312 66.64428711 C35.55293494 66.65018244 32.13658773 66.61959041 28.71909428 66.57917023 C25.4448368 66.54700652 22.17063127 66.55140957 18.89624023 66.55151367 C17.67421402 66.53511841 16.45218781 66.51872314 15.19313049 66.50183105 C8.12955229 66.42666488 8.12955229 66.42666488 2.04248047 69.55737305 C-0.80308852 72.83917386 -1.32633047 74.29504559 -1.37841797 78.515625 C-1.3912532 79.42029007 -1.40408844 80.32495514 -1.41731262 81.2570343 C-1.42469955 82.23722031 -1.43208649 83.21740631 -1.43969727 84.22729492 C-1.45180489 85.73678963 -1.45180489 85.73678963 -1.4641571 87.27677917 C-1.47800318 89.40943679 -1.48872299 91.54211661 -1.49658203 93.67480469 C-1.51379195 96.93426587 -1.55767354 100.19271214 -1.60180664 103.4519043 C-1.61193369 105.52286037 -1.62044975 107.59382508 -1.62719727 109.66479492 C-1.6534594 111.12596489 -1.6534594 111.12596489 -1.68025208 112.61665344 C-1.66660558 116.88063071 -1.6144318 119.44086092 0.57519531 123.17529297 C5.07551373 127.16267293 8.827232 127.43663635 14.7097168 127.41650391 C15.50390015 127.42173065 16.2980835 127.4269574 17.11633301 127.43234253 C18.84050778 127.44257653 20.5647134 127.44836189 22.28891754 127.45022392 C25.03257968 127.45389877 27.77588388 127.47066247 30.51947021 127.49098206 C38.32044752 127.54624212 46.12148006 127.57685069 53.92260742 127.6015625 C58.69953519 127.61760356 63.4762155 127.64800609 68.25301361 127.68632698 C70.05955082 127.69784859 71.86613266 127.70390619 73.6727066 127.7040081 C98.6633705 127.70592672 122.46056719 131.90177274 140.79858398 150.14526367 C141.42506836 150.73694336 142.05155273 151.32862305 142.69702148 151.93823242 C162.23691246 171.96441028 162.14800515 203.38346621 162.05932617 229.34423828 C162.04861578 233.07169906 162.05926718 236.79867695 162.07202148 240.52612305 C162.08961194 267.95730168 160.07604631 297.23639458 140.07519531 318.18554688 C129.65848091 328.45592402 115.90965286 334.02749239 101.79858398 337.14526367 C100.83290497 337.38803543 100.83290497 337.38803543 99.84771729 337.63571167 C89.80617344 339.84759941 79.57588377 339.4935757 69.34936523 339.51635742 C67.24781743 339.52534738 65.1462702 339.53446956 63.04472351 339.54371643 C58.64454608 339.56015376 54.24444419 339.56789574 49.84423828 339.57080078 C44.27634141 339.57614929 38.70918219 339.61370569 33.14149189 339.65954494 C28.79729302 339.68968616 24.45326293 339.69653241 20.10896873 339.69752693 C18.06057582 339.70166376 16.01217917 339.71382521 13.96389198 339.73504448 C-11.98020893 339.98221774 -37.33425025 335.88067139 -56.88110352 317.55932617 C-63.46262927 310.71188019 -67.70992365 302.91657376 -71.20141602 294.14526367 C-71.56106445 293.26741211 -71.92071289 292.38956055 -72.29125977 291.48510742 C-79.64929807 271.74335182 -78.20141602 251.02143764 -78.20141602 230.14526367 C-50.81141602 230.14526367 -23.42141602 230.14526367 4.79858398 230.14526367 C5.12858398 240.70526367 5.45858398 251.26526367 5.79858398 262.14526367 C7.97918231 268.99352262 7.97918231 268.99352262 11.79858398 271.14526367 C14.73529945 271.47786838 14.73529945 271.47786838 18.1184082 271.4675293 C19.42341278 271.48674438 20.72841736 271.50595947 22.07296753 271.52575684 C23.4997284 271.53545255 24.9264974 271.54401027 26.35327148 271.55151367 C27.81674201 271.56302099 29.28021246 271.5745364 30.74368286 271.58605957 C33.81196495 271.60706307 36.88014248 271.61875915 39.94848633 271.62573242 C43.87538804 271.63670199 47.80090262 271.68475779 51.72736931 271.74167633 C54.75062057 271.77897249 57.77353902 271.78934235 60.79700089 271.79240417 C62.24431064 271.79844848 63.69161513 271.81447708 65.13869858 271.84077454 C72.78458717 272.26847639 72.78458717 272.26847639 79.78936768 269.87060547 C83.00735732 266.1700962 83.91785558 262.33673111 83.97558594 257.58544922 C83.98842117 256.66406662 84.00125641 255.74268402 84.01448059 254.79338074 C84.02186752 253.79961929 84.02925446 252.80585785 84.03686523 251.78198242 C84.04897285 250.24487358 84.04897285 250.24487358 84.06132507 248.67671204 C84.07515841 246.50714812 84.08588392 244.33756251 84.09375 242.16796875 C84.11096351 238.85594308 84.15485723 235.54491548 84.19897461 232.2331543 C84.20910174 230.12443767 84.21761778 228.01571257 84.22436523 225.90698242 C84.25062737 224.4254493 84.25062737 224.4254493 84.27742004 222.91398621 C84.25939147 217.17776619 83.82384971 213.58512248 79.79858398 209.14526367 C76.10703125 206.59105214 72.19441614 206.86606023 67.875 206.88989258 C67.07909454 206.88627213 66.28318909 206.88265167 65.46316528 206.87892151 C63.7340821 206.87203124 62.0049772 206.86952138 60.27588081 206.87086868 C57.51824124 206.87183821 54.76098706 206.85883347 52.00340271 206.84188843 C44.1619685 206.79579972 36.32056888 206.77109895 28.47900391 206.7644043 C23.67606786 206.75931639 18.87352436 206.73468895 14.07072258 206.69907761 C12.25994186 206.68942827 10.449106 206.68686409 8.63830757 206.6922493 C-16.2122612 206.76255989 -39.36521051 202.76591746 -58.14282227 185.29370117 C-78.55387866 163.99183966 -79.73409858 134.02935379 -79.5925293 106.32714844 C-79.57642353 102.58450979 -79.59247858 98.84294827 -79.61157227 95.1003418 C-79.63590058 67.71129463 -76.63132656 40.23661635 -56.81469727 19.46166992 C-40.96173551 5.40964254 -20.90659195 -0.01139034 0 0 Z " fill="#FEFEFE" transform="translate(1432.201416015625,889.854736328125)"/>
<path d="M0 0 C29.37 0 58.74 0 89 0 C89 23.43 89 46.86 89 71 C107.48 71 125.96 71 145 71 C145 92.12 145 113.24 145 135 C126.52 135 108.04 135 89 135 C89.04033999 159.02698549 89.0971699 183.05374862 89.18390274 207.08060741 C89.22365215 218.23757851 89.25606547 229.39447948 89.27099609 240.55151367 C89.28403384 250.27999628 89.31105269 260.00832435 89.35461307 269.73671991 C89.37718008 274.88421462 89.39291354 280.03151905 89.39188385 285.17906761 C89.39113442 290.03253182 89.40919819 294.88557617 89.44116783 299.73893166 C89.44962727 301.51210233 89.45144391 303.28532032 89.44580269 305.0585022 C89.34244895 322.05402838 89.34244895 322.05402838 96.4375 337.125 C103.64037235 342.3953944 110.17861337 344.26858921 119.12109375 344.4140625 C120.11308777 344.44052856 120.11308777 344.44052856 121.12512207 344.4675293 C123.56234792 344.52992541 125.99995658 344.57657275 128.4375 344.625 C133.903125 344.74875 139.36875 344.8725 145 345 C145 364.14 145 383.28 145 403 C129.33082515 403.08021762 129.33082515 403.08021762 122.515625 403.09765625 C117.91271197 403.10949108 113.30988041 403.12329908 108.70703125 403.15087891 C43.74336517 403.52924559 43.74336517 403.52924559 21.6953125 381.79296875 C3.59563779 363.03750873 -0.17926582 337.52865494 -0.12025452 312.42123413 C-0.12069134 311.06791845 -0.1215683 309.71460286 -0.12284368 308.36128771 C-0.12506676 304.66695718 -0.1210975 300.97265594 -0.11606562 297.27832913 C-0.11172972 293.28528426 -0.11320977 289.29224091 -0.1139679 285.29919434 C-0.11449114 278.38906847 -0.11136515 271.47895207 -0.10573006 264.56882858 C-0.09758807 254.57806473 -0.09499707 244.58730543 -0.09374207 234.59653862 C-0.09155579 218.38548279 -0.08490719 202.174432 -0.07543945 185.96337891 C-0.06625437 170.21988958 -0.0591789 154.47640162 -0.05493164 138.73291016 C-0.05453756 137.27621017 -0.05453756 137.27621017 -0.05413551 135.7900819 C-0.05283043 130.91798103 -0.05156673 126.04588014 -0.05032361 121.17377925 C-0.03996419 80.78251502 -0.02153299 40.39126012 0 0 Z " fill="#FEFEFE" transform="translate(715,826)"/>
<path d="M0 0 C29.37 0 58.74 0 89 0 C89 142.23 89 284.46 89 431 C59.63 431 30.26 431 0 431 C0 288.77 0 146.54 0 0 Z " fill="#FFFFFF" transform="translate(907,791)"/>
<path d="M0 0 C0.9553212 -0.00524185 1.9106424 -0.0104837 2.89491272 -0.0158844 C4.91129588 -0.02229548 6.92771648 -0.02097945 8.9440918 -0.01245117 C12.02135136 -0.00394441 15.09675194 -0.0327104 18.17382812 -0.06445312 C20.1367182 -0.06606542 22.09961154 -0.06548706 24.0625 -0.0625 C24.9782933 -0.07373398 25.89408661 -0.08496796 26.83763123 -0.09654236 C32.39812411 -0.0361913 35.779651 0.58580515 40.09765625 4.43359375 C43.25749007 8.59053003 43.5270378 12.22941838 43.4853363 17.28355408 C43.49072184 18.06763486 43.49610738 18.85171564 43.50165612 19.65955645 C43.51594908 22.28353316 43.50882877 24.90700636 43.50170898 27.53100586 C43.50741185 29.41361395 43.51437579 31.29621858 43.52250671 33.17881775 C43.54046237 38.29038155 43.53926521 43.40177391 43.53356433 48.51335979 C43.53047597 52.78036633 43.536561 57.04733977 43.54260308 61.3143416 C43.55665459 71.38040608 43.55508178 81.4463857 43.54370117 91.51245117 C43.5322189 101.89795823 43.5462961 112.2832071 43.57309765 122.66868013 C43.59524689 131.58516762 43.60189378 140.50157402 43.59602123 149.41808707 C43.59264866 154.7435951 43.59508677 160.06893762 43.61227226 165.39442253 C43.62772691 170.4021935 43.62380221 175.40958165 43.60496712 180.41733742 C43.60127716 182.25474855 43.60440155 184.09218795 43.61485291 185.92957306 C43.6280369 188.43904093 43.6165391 190.94723662 43.59886169 193.45664978 C43.6132692 194.54591142 43.6132692 194.54591142 43.62796777 195.65717834 C43.54213744 201.58374553 41.29991479 204.87897384 37.53515625 209.24609375 C34.87848267 211.44073714 32.20054504 211.56670399 28.9050293 211.6105957 C28.06372971 211.62343094 27.22243011 211.63626617 26.3556366 211.64949036 C24.99623711 211.66057076 24.99623711 211.66057076 23.609375 211.671875 C22.67341995 211.67994675 21.7374649 211.68801849 20.77314758 211.69633484 C18.79189908 211.71016477 16.81062685 211.7208918 14.8293457 211.72875977 C11.8069928 211.74596941 8.78573486 211.78986487 5.76367188 211.83398438 C3.83724761 211.84411201 1.91081407 211.85262789 -0.015625 211.859375 C-0.91581863 211.87688309 -1.81601227 211.89439117 -2.7434845 211.91242981 C-8.28001888 211.89339086 -11.5994546 211.26142758 -15.90234375 207.43359375 C-19.07267695 203.26838769 -19.33159525 199.61095724 -19.2900238 194.54566956 C-19.29540934 193.75750522 -19.30079488 192.96934089 -19.30634362 192.15729278 C-19.32063724 189.51949739 -19.3135161 186.88220283 -19.30639648 184.24438477 C-19.31209932 182.35192461 -19.31906324 180.45946789 -19.32719421 178.5670166 C-19.34515025 173.42859442 -19.34395263 168.29034277 -19.33825183 163.15189862 C-19.33516353 158.86252419 -19.34124843 154.57318269 -19.34729058 150.28381294 C-19.36134221 140.1650109 -19.35976917 130.04629327 -19.34838867 119.92749023 C-19.33690637 109.48745211 -19.35098362 99.04767083 -19.37778515 88.60766655 C-19.39993414 79.64447042 -19.40658134 70.68135495 -19.40070873 61.71813339 C-19.3973361 56.36468 -19.39977466 51.01139128 -19.41695976 45.65796089 C-19.43241401 40.62392578 -19.42849015 35.59027151 -19.40965462 30.55625153 C-19.40596455 28.70916505 -19.40908936 26.86205045 -19.41954041 25.01498985 C-19.43272362 22.49238705 -19.42122724 19.97104995 -19.40354919 17.44850159 C-19.4131542 16.71843621 -19.42275921 15.98837084 -19.43265527 15.23618227 C-19.35983991 10.1824517 -18.04601376 7.34407614 -14.90234375 3.43359375 C-10.44483562 -0.43155449 -5.61266073 -0.01795209 0 0 Z " fill="#4F39F6" transform="translate(521.90234375,953.56640625)"/>
<path d="M0 0 C0.86462357 -0.00960754 1.72924713 -0.01921509 2.62007141 -0.02911377 C4.02472908 -0.03548859 4.02472908 -0.03548859 5.45776367 -0.04199219 C6.41970139 -0.04769226 7.3816391 -0.05339233 8.37272644 -0.05926514 C10.4112335 -0.06872231 12.44975589 -0.07525196 14.48828125 -0.07910156 C17.60273047 -0.08879559 20.71651663 -0.11980756 23.83081055 -0.15136719 C25.81062433 -0.15789835 27.79044284 -0.16314838 29.77026367 -0.16699219 C30.70062943 -0.17933899 31.63099518 -0.19168579 32.58955383 -0.20440674 C37.48943743 -0.1875833 40.85591239 -0.06231914 44.81323242 3.16113281 C49.20026213 8.1574722 49.96139635 11.07437376 49.95367432 17.57440186 C49.95664544 18.34775226 49.95961656 19.12110266 49.96267772 19.91788793 C49.971387 22.52339442 49.97287485 25.12885508 49.97436523 27.734375 C49.97899188 29.59683328 49.98401633 31.45929061 49.9894104 33.32174683 C50.00255233 38.39211713 50.008983 43.46247417 50.01342106 48.53285885 C50.01634926 51.69918688 50.02045362 54.86551126 50.02492523 58.03183746 C50.03860569 67.93421943 50.04826932 77.8365931 50.05212712 87.73898387 C50.05660755 99.17753845 50.07415246 110.61597352 50.10312772 122.05449176 C50.1247342 130.89022402 50.13483087 139.72592263 50.13616824 148.56168103 C50.13721713 153.84138658 50.14314264 159.12097987 50.16098785 164.40065765 C50.17745034 169.36809795 50.17963287 174.33534139 50.17084885 179.30279922 C50.17007746 181.1257009 50.17443454 182.94861308 50.1843071 184.77148819 C50.19699986 187.26120349 50.19116451 189.7502188 50.1807251 192.2399292 C50.1887815 192.96036809 50.19683791 193.68080698 50.20513844 194.42307734 C50.15964897 199.06572267 49.25109458 202.21594829 46.81323242 206.16113281 C43.11209068 209.50118756 40.69569469 211.27225153 35.73413086 211.33813477 C34.47206818 211.35738762 34.47206818 211.35738762 33.18450928 211.37702942 C32.27308167 211.38441635 31.36165405 211.39180328 30.42260742 211.39941406 C29.48523743 211.40748581 28.54786743 211.41555756 27.58209229 211.4238739 C25.59486747 211.43771968 23.60761883 211.44843962 21.62036133 211.45629883 C18.58913697 211.47348593 15.55901053 211.51736446 12.52807617 211.56152344 C10.59709461 211.57165264 8.66610377 211.58016803 6.73510742 211.58691406 C5.83177673 211.60442215 4.92844604 211.62193024 3.9977417 211.63996887 C-1.54791687 211.62097062 -4.87780057 210.99765413 -9.18676758 207.16113281 C-12.36228688 202.99040768 -12.61994636 199.31449005 -12.58790588 194.24197388 C-12.59470255 193.45043156 -12.60149922 192.65888923 -12.60850185 191.84336078 C-12.62747478 189.19410525 -12.625037 186.545312 -12.62255859 183.89599609 C-12.63153604 181.99530442 -12.64174425 180.09461821 -12.65309143 178.19393921 C-12.67959629 173.03274362 -12.68662508 167.87169723 -12.68853879 162.71044016 C-12.69138805 158.40127387 -12.70242514 154.0921423 -12.71305507 149.78298938 C-12.73748268 139.6162133 -12.74480831 129.4495169 -12.74267578 119.28271484 C-12.74087321 108.79602112 -12.77253412 98.30979027 -12.81990677 87.8232137 C-12.85913567 78.81838494 -12.87522739 69.81370746 -12.87330955 60.8087939 C-12.87254469 55.4311724 -12.88109291 50.0539623 -12.9128437 44.67642593 C-12.94189246 39.61845848 -12.94212209 34.56129556 -12.92029381 29.50329971 C-12.9171569 27.64855779 -12.92424174 25.79376573 -12.94237518 23.9391098 C-12.96556059 21.40321556 -12.95159587 18.87009423 -12.92848206 16.33425903 C-12.95162809 15.23769381 -12.95162809 15.23769381 -12.97524172 14.11897576 C-12.86889161 8.82603546 -11.13321384 6.21302314 -7.66850418 2.50270259 C-5.12201175 0.19709896 -3.33560286 0.0298839 0 0 Z " fill="#503AF6" transform="translate(1158.186767578125,953.8388671875)"/>
</svg>
